{
    "asset" : {
        "copyright" : "Graphics Programming Discord",
        "generator" : "Khronos glTF Blender I/O v1.8.19",
        "version" : "2.0"
    },
    "scene" : 0,
    "scenes" : [
        {
            "name" : "Scene",
            "nodes" : [
                0
            ]
        }
    ],
    "nodes" : [
        {
            "mesh" : 0,
            "name" : "froge",
            "rotation" : [
                0,
                0.48415908217430115,
                -0.8749799728393555,
                -7.479958696876565e-08
            ],
            "scale" : [
                9.999999747378752e-05,
                9.999998292187229e-05,
                9.999998292187229e-05
            ]
        }
    ],
    "materials" : [
        {
            "doubleSided" : true,
            "name" : "froge.001",
            "pbrMetallicRoughness" : {
                "metallicFactor" : 0
            }
        }
    ],
    "meshes" : [
        {
            "name" : "froge.001",
            "primitives" : [
                {
                    "attributes" : {
                        "POSITION" : 0,
                        "NORMAL" : 1,
                        "TEXCOORD_0" : 2
                    },
                    "indices" : 3,
                    "material" : 0
                }
            ]
        }
    ],
    "accessors" : [
        {
            "bufferView" : 0,
            "componentType" : 5126,
            "count" : 41480,
            "max" : [
                15779.1962890625,
                13550.376953125,
                8402.0205078125
            ],
            "min" : [
                -16632.4140625,
                -13171.8037109375,
                -8395.0009765625
            ],
            "type" : "VEC3"
        },
        {
            "bufferView" : 1,
            "componentType" : 5126,
            "count" : 41480,
            "type" : "VEC3"
        },
        {
            "bufferView" : 2,
            "componentType" : 5126,
            "count" : 41480,
            "type" : "VEC2"
        },
        {
            "bufferView" : 3,
            "componentType" : 5123,
            "count" : 74445,
            "type" : "SCALAR"
        }
    ],
    "bufferViews" : [
        {
            "buffer" : 0,
            "byteLength" : 497760,
            "byteOffset" : 0
        },
        {
            "buffer" : 0,
            "byteLength" : 497760,
            "byteOffset" : 497760
        },
        {
            "buffer" : 0,
            "byteLength" : 331840,
            "byteOffset" : 995520
        },
        {
            "buffer" : 0,
            "byteLength" : 148890,
            "byteOffset" : 1327360
        }
    ],
    "buffers" : [
        {
            "byteLength" : 1476252,
            "uri" : "data:application/octet-stream;base64,"
        }
    ]
}
