{
	"asset":{
		"generator":"Khronos glTF Blender I/O v3.5.30",
		"version":"2.0"
	},
	"extensionsUsed":[
		"KHR_materials_unlit"
	],
	"scene":0,
	"scenes":[
		{
			"name":"Scene",
			"nodes":[
				0
			]
		}
	],
	"nodes":[
		{
			"mesh":0,
			"name":"Good_Froge-Clean_up_Low"
		}
	],
	"materials":[
		{
			"doubleSided":true,
			"extensions":{
				"KHR_materials_unlit":{}
			},
			"name":"BaseMaterial",
			"pbrMetallicRoughness":{
				"baseColorTexture":{
					"index":0,
					"texCoord":0
				},
				"metallicFactor":0,
				"roughnessFactor":0.9
			}
		}
	],
	"meshes":[
		{
			"name":"Cube.001",
			"primitives":[
				{
					"attributes":{
						"COLOR_0":0,
						"POSITION":1,
						"TEXCOORD_0":2,
						"NORMAL":3
					},
					"indices":4,
					"material":0
				}
			]
		}
	],
	"textures":[
		{
			"sampler":0,
			"source":0
		}
	],
	"images":[
		{
			"mimeType":"image/png",
			"name":"SM_Good_Froge",
			"uri":"SM_Good_Froge.png"
		}
	],
	"accessors":[
		{
			"bufferView":0,
			"componentType":5126,
			"count":2849,
			"type":"VEC4"
		},
		{
			"bufferView":1,
			"componentType":5126,
			"count":2849,
			"max":[
				0.4814437925815582,
				0.265959233045578,
				0.482435017824173
			],
			"min":[
				-0.4357852637767792,
				-0.22619172930717468,
				-0.4487006366252899
			],
			"type":"VEC3"
		},
		{
			"bufferView":2,
			"componentType":5126,
			"count":2849,
			"type":"VEC2"
		},
		{
			"bufferView":3,
			"componentType":5126,
			"count":2849,
			"type":"VEC3"
		},
		{
			"bufferView":4,
			"componentType":5123,
			"count":12804,
			"type":"SCALAR"
		}
	],
	"bufferViews":[
		{
			"buffer":0,
			"byteLength":45584,
			"byteOffset":0,
			"target":34962
		},
		{
			"buffer":0,
			"byteLength":34188,
			"byteOffset":45584,
			"target":34962
		},
		{
			"buffer":0,
			"byteLength":22792,
			"byteOffset":79772,
			"target":34962
		},
		{
			"buffer":0,
			"byteLength":34188,
			"byteOffset":102564,
			"target":34962
		},
		{
			"buffer":0,
			"byteLength":25608,
			"byteOffset":136752,
			"target":34963
		}
	],
	"samplers":[
		{
			"magFilter":9729,
			"minFilter":9987
		}
	],
	"buffers":[
		{
			"byteLength":162360,
			"uri":"Good_Froge-Clean_up_Low-Separate.bin"
		}
	]
}
