{
	"asset":{
		"generator":"Khronos glTF Blender I/O v3.5.30",
		"version":"2.0"
	},
	"extensionsUsed":[
		"KHR_materials_unlit"
	],
	"scene":0,
	"scenes":[
		{
			"name":"Scene",
			"nodes":[
				0
			]
		}
	],
	"nodes":[
		{
			"mesh":0,
			"name":"Good_Froge-Clean_up_BaseSculpt"
		}
	],
	"materials":[
		{
			"doubleSided":true,
			"extensions":{
				"KHR_materials_unlit":{}
			},
			"name":"BaseMaterial",
			"pbrMetallicRoughness":{
				"baseColorTexture":{
					"index":0,
					"texCoord":0
				},
				"metallicFactor":0,
				"roughnessFactor":0.9
			}
		}
	],
	"meshes":[
		{
			"name":"Cube.004",
			"primitives":[
				{
					"attributes":{
						"COLOR_0":0,
						"POSITION":1,
						"TEXCOORD_0":2,
						"NORMAL":3
					},
					"indices":4,
					"material":0
				}
			]
		}
	],
	"textures":[
		{
			"sampler":0,
			"source":0
		}
	],
	"images":[
		{
			"mimeType":"image/png",
			"name":"SM_Good_Froge",
			"uri":"SM_Good_Froge.png"
		}
	],
	"accessors":[
		{
			"bufferView":0,
			"componentType":5126,
			"count":26755,
			"type":"VEC4"
		},
		{
			"bufferView":1,
			"componentType":5126,
			"count":26755,
			"max":[
				0.4798918068408966,
				0.26528462767601013,
				0.48115256428718567
			],
			"min":[
				-0.4355370104312897,
				-0.22625485062599182,
				-0.4487200379371643
			],
			"type":"VEC3"
		},
		{
			"bufferView":2,
			"componentType":5126,
			"count":26755,
			"type":"VEC2"
		},
		{
			"bufferView":3,
			"componentType":5126,
			"count":26755,
			"type":"VEC3"
		},
		{
			"bufferView":4,
			"componentType":5123,
			"count":145044,
			"type":"SCALAR"
		}
	],
	"bufferViews":[
		{
			"buffer":0,
			"byteLength":428080,
			"byteOffset":0,
			"target":34962
		},
		{
			"buffer":0,
			"byteLength":321060,
			"byteOffset":428080,
			"target":34962
		},
		{
			"buffer":0,
			"byteLength":214040,
			"byteOffset":749140,
			"target":34962
		},
		{
			"buffer":0,
			"byteLength":321060,
			"byteOffset":963180,
			"target":34962
		},
		{
			"buffer":0,
			"byteLength":290088,
			"byteOffset":1284240,
			"target":34963
		}
	],
	"samplers":[
		{
			"magFilter":9729,
			"minFilter":9987
		}
	],
	"buffers":[
		{
			"byteLength":1574328,
			"uri":"Good_Froge-Clean_up_BaseSculpt-Separate.bin"
		}
	]
}
